<?xml version="1.0" encoding="UTF-8"?>
<svg width="100px" height="100px" viewBox="0 0 100 100" version="1.1" xmlns="http://www.w3.org/2000/svg" xmlns:xlink="http://www.w3.org/1999/xlink">
    <title>linkedin</title>
    <g id="Icons" stroke="none" stroke-width="1" fill="none" fill-rule="evenodd">
        <g transform="translate(-206.000000, -308.000000)" id="linkedin">
            <g transform="translate(206.000000, 308.000000)">
                <rect id="Icon-BG" fill="#3F4551" x="0" y="0" width="100" height="100" rx="25"></rect>
                <path d="M72.3772917,72.3908333 L62.751875,72.3908333 L62.751875,57.308125 C62.751875,53.7114583 62.67875,49.0829167 57.7360417,49.0829167 C52.7175,49.0829167 51.9510417,52.9964583 51.9510417,57.0427083 L51.9510417,72.3908333 L42.325625,72.3908333 L42.325625,41.375 L51.571875,41.375 L51.571875,45.6027083 L51.6964583,45.6027083 C52.9883333,43.1652083 56.13,40.5922917 60.8235417,40.5922917 C70.57625,40.5922917 72.38,47.0110417 72.38,55.36625 L72.38,72.3908333 L72.3772917,72.3908333 Z M31.454375,37.1310417 C28.3560417,37.1310417 25.8670833,34.623125 25.8670833,31.5383333 C25.8670833,28.45625 28.35875,25.9510417 31.454375,25.9510417 C34.541875,25.9510417 37.044375,28.45625 37.044375,31.5383333 C37.044375,34.623125 34.5391667,37.1310417 31.454375,37.1310417 Z M36.280625,72.3908333 L26.628125,72.3908333 L26.628125,41.375 L36.280625,41.375 L36.280625,72.3908333 Z M77.1927083,17 L21.7964583,17 C19.145,17 17,19.09625 17,21.6827083 L17,77.3172917 C17,79.9064583 19.145,82 21.7964583,82 L77.1845833,82 C79.8333333,82 82,79.9064583 82,77.3172917 L82,21.6827083 C82,19.09625 79.8333333,17 77.1845833,17 L77.1927083,17 Z" id="Shape" fill="#FFFFFF" fill-rule="nonzero"></path>
            </g>
        </g>
    </g>
</svg>