<?xml version="1.0" encoding="UTF-8"?>
<svg width="100px" height="100px" viewBox="0 0 100 100" version="1.1" xmlns="http://www.w3.org/2000/svg" xmlns:xlink="http://www.w3.org/1999/xlink">
    <title>website</title>
    <g id="Icons" stroke="none" stroke-width="1" fill="none" fill-rule="evenodd">
        <g transform="translate(-326.000000, -308.000000)" id="website">
            <g transform="translate(326.000000, 308.000000)">
                <rect id="Icon-BG" fill="#3F4551" x="0" y="0" width="100" height="100" rx="25"></rect>
                <g id="globe" transform="translate(15.000000, 15.000000)" fill="#FFFFFF" fill-rule="nonzero">
                    <path d="M32.7169336,32.3067773 L32.7169336,22.042207 C28.7243359,21.8177148 24.8372852,20.9889258 21.1174414,19.5695117 C20.0358594,23.4811719 19.390957,27.7991602 19.2307227,32.3067773 L32.7169336,32.3067773 Z" id="Path"></path>
                    <path d="M32.7169336,47.0348047 L32.7169336,36.7702344 L19.2307227,36.7702344 C19.390957,41.2778516 20.0358594,45.5958398 21.1174414,49.5075 C24.8372852,48.0880859 28.7243359,47.2591602 32.7169336,47.0348047 L32.7169336,47.0348047 Z" id="Path"></path>
                    <path d="M22.5194922,15.3403906 C25.7517969,16.5908203 29.1813867,17.345918 32.7167969,17.5704102 L32.7167969,3.28712891 C27.8158398,4.75453125 24.3951367,10.5626172 22.5194922,15.3403906 Z" id="Path"></path>
                    <path d="M47.3776953,53.7364844 C44.1453906,52.4860547 40.7158008,51.730957 37.1803906,51.5064648 L37.1803906,65.7896094 C42.0814844,64.3223438 45.5020508,58.5142578 47.3776953,53.7364844 Z" id="Path"></path>
                    <path d="M14.7654883,32.3067773 C14.9376172,27.1509766 15.7046094,22.197793 17.0053516,17.7247656 C13.8876172,16.1020508 11.0185742,14.0693164 8.43595703,11.6552734 C3.41632812,17.4531055 0.478789062,24.6436914 -1.94289029e-15,32.3067773 L14.7654883,32.3067773 Z" id="Path"></path>
                    <path d="M55.1316992,36.7700977 C54.9595703,41.9258984 54.1925781,46.879082 52.8918359,51.3521094 C56.0095703,52.9748242 58.8786133,55.0075586 61.4612305,57.4216016 C66.4808594,51.6237695 69.4183984,44.4331836 69.8971875,36.7700977 L55.1316992,36.7700977 Z" id="Path"></path>
                    <path d="M14.7654883,36.7700977 L0,36.7700977 C0.478789062,44.4331836 3.41632812,51.6237695 8.43595703,57.4216016 C11.0185742,55.0075586 13.8876172,52.9749609 17.0053516,51.3521094 C15.7046094,46.879082 14.9376172,41.9258984 14.7654883,36.7700977 Z" id="Path"></path>
                    <path d="M32.7169336,65.7897461 L32.7169336,51.5064648 C29.1813867,51.7308203 25.7519336,52.485918 22.5196289,53.7364844 C24.3981445,58.5220508 27.8195312,64.3234375 32.7169336,65.7897461 Z" id="Path"></path>
                    <path d="M51.4299023,55.6200586 C49.3211523,60.9023242 45.8910156,66.4107227 40.9083008,69.0563672 C47.382207,67.9527734 53.3888086,65.0539258 58.3337891,60.606875 C56.2205273,58.6433203 53.9031445,56.9743945 51.4299023,55.6200586 L51.4299023,55.6200586 Z" id="Path"></path>
                    <path d="M18.4672852,55.6200586 C15.994043,56.9743945 13.6765234,58.643457 11.5633984,60.6070117 C16.5083789,65.0539258 22.5149805,67.9529102 28.9888867,69.0565039 C24.0054883,66.4103125 20.5754883,60.9010937 18.4672852,55.6200586 Z" id="Path"></path>
                    <path d="M18.4672852,13.4568164 C20.5760352,8.17455078 24.0061719,2.66615234 28.9888867,0.0205078125 C22.5149805,1.12410156 16.5083789,4.02294922 11.5633984,8.47 C13.6766602,10.4335547 15.994043,12.1024805 18.4672852,13.4568164 Z" id="Path"></path>
                    <path d="M37.1802539,36.7700977 L37.1802539,47.034668 C41.1728516,47.2591602 45.0599023,48.0879492 48.7797461,49.5073633 C49.8613281,45.5957031 50.5062305,41.2777148 50.6664648,36.7700977 L37.1802539,36.7700977 Z" id="Path"></path>
                    <path d="M52.8918359,17.7247656 C54.1925781,22.197793 54.9595703,27.1509766 55.1316992,32.3067773 L69.8971875,32.3067773 C69.4183984,24.6436914 66.4808594,17.4531055 61.4612305,11.6552734 C58.8786133,14.0693164 56.0095703,16.1019141 52.8918359,17.7247656 Z" id="Path"></path>
                    <path d="M37.1802539,22.0420703 L37.1802539,32.3066406 L50.6664648,32.3066406 C50.5062305,27.7990234 49.8613281,23.4810352 48.7797461,19.569375 C45.0599023,20.9887891 41.1728516,21.8177148 37.1802539,22.0420703 L37.1802539,22.0420703 Z" id="Path"></path>
                    <path d="M37.1802539,3.28712891 L37.1802539,17.5702734 C40.7158008,17.345918 44.1452539,16.5908203 47.3775586,15.3402539 C45.499043,10.5548242 42.0776563,4.7534375 37.1802539,3.28712891 Z" id="Path"></path>
                    <path d="M40.9083008,0.0205078125 C45.8916992,2.6665625 49.3216992,8.17564453 51.4299023,13.4568164 C53.9031445,12.1024805 56.2206641,10.433418 58.3337891,8.46986328 C53.3886719,4.02308594 47.382207,1.12410156 40.9083008,0.0205078125 L40.9083008,0.0205078125 Z" id="Path"></path>
                </g>
            </g>
        </g>
    </g>
</svg>