<?xml version="1.0" encoding="UTF-8"?>
<svg width="100px" height="100px" viewBox="0 0 100 100" version="1.1" xmlns="http://www.w3.org/2000/svg" xmlns:xlink="http://www.w3.org/1999/xlink">
    <title>gatsby</title>
    <g id="Icons" stroke="none" stroke-width="1" fill="none" fill-rule="evenodd">
        <g transform="translate(-756.000000, -43.000000)" id="gatsby">
            <g transform="translate(756.000000, 43.000000)">
                <rect id="Icon-BG" fill="#663399" x="0" y="0" width="100" height="100" rx="25"></rect>
                <path d="M50,15 C30.75,15 15,30.75 15,50 C15,69.25 30.75,85 50,85 C69.25,85 85,69.25 85,50 C85,30.75 69.25,15 50,15 Z M50,22.49875 C59.24875,22.49875 67.2520833,26.9991667 72.25125,33.75125 L68.5004167,37.0033333 C64.2508333,31.2516667 57.49875,27.5008333 50,27.5008333 C40.2495833,27.5008333 32.00125,33.75125 28.7491667,42.50125 L57.49875,71.2508333 C64.7495833,68.75125 70.2533333,62.5008333 72.0033333,54.9991667 L60.00125,54.9991667 L60.00125,50 L77.50125,50 C77.50125,62.9995833 68.2495833,73.9983333 55.9995833,76.7458333 L23.2541667,44.0033333 C26.0016667,31.7504167 37.0004167,22.4958333 50,22.4958333 L50,22.49875 Z M22.49875,50.49875 L49.7520833,77.50125 C42.7520833,77.2504167 35.7491667,74.7508333 30.4991667,69.5008333 C25.2491667,64.2508333 22.49875,57.2479167 22.49875,50.49875 Z" id="Shape" fill="#FFFFFF" fill-rule="nonzero"></path>
            </g>
        </g>
    </g>
</svg>