<?xml version="1.0" encoding="UTF-8"?>
<svg width="100px" height="100px" viewBox="0 0 100 100" version="1.1" xmlns="http://www.w3.org/2000/svg" xmlns:xlink="http://www.w3.org/1999/xlink">
    <title>git</title>
    <g id="Icons" stroke="none" stroke-width="1" fill="none" fill-rule="evenodd">
        <g transform="translate(-1236.000000, -43.000000)" id="git">
            <g transform="translate(1236.000000, 43.000000)">
                <rect id="Icon-BG" fill="#F05032" x="0" y="0" width="100" height="100" rx="25"></rect>
                <path d="M83.6758333,46.8791667 L53.1120833,16.3183333 C51.3504167,14.5595833 48.4979167,14.5595833 46.7304167,16.3183333 L40.3983333,22.6620833 L48.4483333,30.7120833 C50.3295833,30.085 52.4704167,30.5079167 53.9579167,31.9983333 C55.4629167,33.5004167 55.8770833,35.6675 55.2354167,37.54 L62.9879167,45.2983333 C64.8691667,44.6479167 67.0333333,45.0708333 68.5295833,46.5670833 C70.6325,48.6670833 70.6325,52.0620833 68.5295833,54.1620833 C66.4325,56.2591667 63.0433333,56.2591667 60.94625,54.1620833 C59.3741667,52.5841667 58.9804167,50.2625 59.7679167,48.3404167 L52.5083333,41.11875 L52.5083333,60.15 C53.0216667,60.4008333 53.5058333,60.7420833 53.9316667,61.165 C56.01125,63.2679167 56.01125,66.6570833 53.9316667,68.7483333 C51.8345833,70.85125 48.4220833,70.85125 46.3220833,68.7483333 C44.225,66.65125 44.225,63.2679167 46.3220833,61.1708333 C46.8529167,60.6458333 47.4508333,60.2491667 48.0866667,59.9866667 L48.0866667,40.76875 C47.45375,40.5033333 46.85,40.12125 46.3366667,39.5991667 C44.7470833,38.0095833 44.365,35.685 45.1816667,33.7395833 L37.2716667,25.7916667 L16.3125,46.73625 C14.5625,48.5008333 14.5625,51.35625 16.3125,53.1208333 L46.8791667,83.67875 C48.6408333,85.4404167 51.4933333,85.4404167 53.255,83.67875 L83.6758333,53.2579167 C85.4404167,51.4991667 85.4404167,48.64375 83.6758333,46.8791667" id="Path" fill="#FFFFFF" fill-rule="nonzero"></path>
            </g>
        </g>
    </g>
</svg>