<?xml version="1.0" encoding="UTF-8"?>
<svg width="100px" height="100px" viewBox="0 0 100 100" version="1.1" xmlns="http://www.w3.org/2000/svg" xmlns:xlink="http://www.w3.org/1999/xlink">
    <title>github</title>
    <g id="Icons" stroke="none" stroke-width="1" fill="none" fill-rule="evenodd">
        <g transform="translate(-1476.000000, -43.000000)" id="github">
            <g transform="translate(1476.000000, 43.000000)">
                <rect id="Icon-BG" fill="#3A3A3A" x="0" y="0" width="100" height="100" rx="25"></rect>
                <path d="M49.5,18.297 C31.54375,18.297 17,32.848875 17,50.797 C17,65.1592917 26.31125,77.3386667 39.221875,81.631375 C40.846875,81.9374167 41.4427083,80.932625 41.4427083,80.0686667 C41.4427083,79.2967917 41.415625,77.252 41.4020833,74.5436667 C32.3616667,76.5045 30.455,70.18325 30.455,70.18325 C28.97625,66.4322083 26.839375,65.430125 26.839375,65.430125 C23.8954167,63.415125 27.066875,63.45575 27.066875,63.45575 C30.3304167,63.68325 32.0447917,66.80325 32.0447917,66.80325 C34.9427083,71.7730417 39.6525,70.337625 41.5104167,69.5061667 C41.8029167,67.4045 42.6397917,65.9717917 43.56875,65.1592917 C36.3510417,64.3467917 28.765,61.5517917 28.765,49.098875 C28.765,45.5509583 30.024375,42.6530417 32.1097917,40.3780417 C31.7441667,39.5574167 30.6472917,36.25325 32.3941667,31.776375 C32.3941667,31.776375 35.1160417,30.9042917 41.3316667,35.107625 C43.9316667,34.3845 46.6941667,34.027 49.4566667,34.01075 C52.2191667,34.027 54.9816667,34.3845 57.5816667,35.107625 C63.7566667,30.9042917 66.4785417,31.776375 66.4785417,31.776375 C68.2254167,36.25325 67.1285417,39.5574167 66.8035417,40.3780417 C68.8754167,42.6530417 70.1347917,45.5509583 70.1347917,49.098875 C70.1347917,61.5842917 62.5379167,64.33325 55.3066667,65.1322083 C56.4441667,66.1072083 57.5004167,68.1005417 57.5004167,71.1447083 C57.5004167,75.4942917 57.4597917,78.9880417 57.4597917,80.0442917 C57.4597917,80.8974167 58.0285417,81.9130417 59.6941667,81.5880417 C72.696875,77.325125 82,65.137625 82,50.797 C82,32.848875 67.448125,18.297 49.5,18.297" id="Path" fill="#FFFFFF" fill-rule="nonzero"></path>
            </g>
        </g>
    </g>
</svg>