<?xml version="1.0" encoding="UTF-8"?>
<svg width="100px" height="100px" viewBox="0 0 100 100" version="1.1" xmlns="http://www.w3.org/2000/svg" xmlns:xlink="http://www.w3.org/1999/xlink">
    <title>graphql</title>
    <g id="Icons" stroke="none" stroke-width="1" fill="none" fill-rule="evenodd">
        <g transform="translate(-876.000000, -43.000000)" id="graphql">
            <g transform="translate(876.000000, 43.000000)">
                <rect id="Icon-BG" fill="#E10098" x="0" y="0" width="100" height="100" rx="25"></rect>
                <path d="M57.0416284,20.0154796 L73.2144289,29.3553948 C75.8885941,26.5403116 80.3357046,26.428888 83.1507878,29.1030532 C83.6358079,29.561856 84.0487305,30.0894793 84.3862783,30.6662601 C86.3165274,34.0351838 85.1465802,38.3315448 81.7776564,40.261794 C81.20743,40.5895103 80.5946005,40.8352975 79.9489993,40.9926014 L79.9489993,59.6691545 C83.7046284,60.5638201 86.0248599,64.3325578 85.1269172,68.0881869 C84.9696134,68.7567282 84.7107175,69.3990521 84.3666153,69.9922187 C82.4265347,73.3447567 78.1367281,74.495041 74.7743586,72.5549603 C74.1320346,72.1846409 73.5454224,71.7061751 73.0505707,71.1490573 L56.9760851,80.4299835 C58.1951899,84.113515 56.1961203,88.0821597 52.515866,89.2979872 C51.8047216,89.5306658 51.0673599,89.6519234 50.3201666,89.6519234 C46.4498369,89.655198 43.3103145,86.52223 43.3070374,82.6519002 C43.3070374,81.9800818 43.4020751,81.3082633 43.5954277,80.6561078 L27.4193501,71.3260241 C24.7451849,74.1247215 20.3046287,74.2328679 17.5026542,71.5554255 C14.7039568,68.8812604 14.5990875,64.4407042 17.2732527,61.6387296 C18.2006899,60.6654122 19.3903002,59.9804851 20.6946111,59.6626002 L20.6978883,40.986047 C16.9291506,40.08155 14.608919,36.2898721 15.5166932,32.5178573 C15.6707199,31.868979 15.9197843,31.2430408 16.2507778,30.6629829 C18.1908584,27.3071678 22.4839423,26.1601606 25.8430346,28.1002413 C26.4230924,28.4312347 26.9539929,28.8474345 27.4160729,29.3357318 L43.5987049,19.9958166 C42.497578,16.2827907 44.6179026,12.3862436 48.3210971,11.2883939 C48.9666982,11.0950413 49.645071,11.000001 50.3201666,11.000001 C54.1904964,10.9967264 57.3300188,14.1264173 57.3332959,17.9934699 C57.3365731,18.678397 57.234981,19.3633241 57.0416284,20.0154796 Z M55.3538893,22.8895517 C55.2916232,22.9583722 55.2326343,23.0173611 55.1638139,23.0796272 L76.3375654,59.7510836 C76.4227717,59.7215892 76.5210866,59.698649 76.6062928,59.6757089 L76.6062928,40.9729384 C72.8539409,40.0455012 70.5697582,36.247269 71.5004725,32.49164 C71.5201355,32.412988 71.5397985,32.331059 71.5627386,32.2556842 L55.3538893,22.8895517 Z M45.4732422,23.0829044 L45.2766124,22.8862746 L29.0677632,32.2327441 C30.1393955,35.9523243 27.9961308,39.8292084 24.2798277,40.9008408 C24.1946215,40.9270581 24.1126924,40.9467211 24.0307633,40.9696612 L24.0307633,59.6757089 L24.306045,59.7510836 L45.4797966,23.0796272 L45.4732422,23.0829044 Z M52.2766331,24.7444261 C50.9985394,25.1114684 49.645071,25.1114684 48.3702545,24.7444261 L27.1997801,61.4126054 C28.1632661,62.3400426 28.8449161,63.5263757 29.1660781,64.8241323 L71.4775324,64.8241323 C71.7954172,63.5198213 72.4836215,62.3302111 73.4536618,61.4027739 L52.2766331,24.7444261 Z M55.507916,77.9229537 L71.6086189,68.6223645 C71.5594615,68.4683378 71.5201355,68.3143111 71.4840867,68.1570073 L29.1562466,68.1570073 L29.0874261,68.4290118 L45.2733353,77.7754813 C46.5448746,76.4515074 48.3342057,75.6354938 50.3201666,75.6354938 C52.374948,75.6354938 54.2199909,76.5170507 55.507916,77.9229537 Z" id="Shape" fill="#FFFFFF" fill-rule="nonzero"></path>
            </g>
        </g>
    </g>
</svg>