<?xml version="1.0" encoding="UTF-8"?>
<svg width="100px" height="100px" viewBox="0 0 100 100" version="1.1" xmlns="http://www.w3.org/2000/svg" xmlns:xlink="http://www.w3.org/1999/xlink">
    <title>html5</title>
    <g id="Icons" stroke="none" stroke-width="1" fill="none" fill-rule="evenodd">
        <g transform="translate(-36.000000, -43.000000)" id="html5">
            <g transform="translate(36.000000, 43.000000)">
                <rect id="Icon-BG" fill="#E34F26" x="0" y="0" width="100" height="100" rx="25"></rect>
                <g transform="translate(20.000000, 16.000000)" fill="#FFFFFF" fill-rule="nonzero" id="Shape">
                    <path d="M0.170454545,0 L59.8295455,0 L54.4034091,61.2585227 L29.9346591,68.1818182 L5.60511364,61.2556818 L0.170454545,0 Z M20.1448864,27.6988636 L19.4857955,19.9772727 L48.0625,19.9857955 L48.7159091,12.5369318 L11.2840909,12.5284091 L13.2670455,35.2840909 L39.1931818,35.2840909 L38.2670455,45.0170455 L30,47.3011364 L21.6051136,45 L21.0710227,39.0056818 L13.6590909,39.0056818 L14.5965909,50.8551136 L30,54.9744318 L45.28125,50.875 L47.3948864,27.7017045 L20.1448864,27.7017045 L20.1448864,27.6988636 Z"></path>
                </g>
            </g>
        </g>
    </g>
</svg>