<?xml version="1.0" encoding="UTF-8"?>
<svg width="100px" height="100px" viewBox="0 0 100 100" version="1.1" xmlns="http://www.w3.org/2000/svg" xmlns:xlink="http://www.w3.org/1999/xlink">
    <title>javascript</title>
    <g id="Icons" stroke="none" stroke-width="1" fill="none" fill-rule="evenodd">
        <g transform="translate(-396.000000, -43.000000)" id="javascript">
            <g transform="translate(396.000000, 43.000000)">
                <rect id="Icon-BG" fill="#F7DF1E" x="0" y="0" width="100" height="100" rx="25"></rect>
                <path d="M15,15 L85,15 L85,85 L15,85 L15,15 Z M79.2658333,68.305 C78.7554167,65.11125 76.6758333,62.4279167 70.5070833,59.9254167 C68.3604167,58.9191667 65.9745833,58.2191667 65.2658333,56.6004167 C65.0004167,55.6379167 64.9595833,55.1129167 65.1316667,54.5441667 C65.5691667,52.66 67.8004167,52.0941667 69.5504167,52.6191667 C70.6879167,52.9691667 71.7379167,53.8441667 72.3970833,55.2441667 C75.4129167,53.2725 75.4129167,53.2725 77.5158333,51.9629167 C76.7283333,50.7379167 76.3375,50.21 75.8066667,49.6879167 C73.9691667,47.6316667 71.5220833,46.5816667 67.5408333,46.6720833 L65.4845833,46.9316667 C63.5129167,47.4129167 61.6345833,48.4629167 60.4970833,49.8629167 C57.1720833,53.6283333 58.1316667,60.1908333 62.1566667,62.9033333 C66.1379167,65.8783333 71.9595833,66.5316667 72.7033333,69.3345833 C73.4033333,72.7470833 70.1658333,73.8408333 66.9691667,73.4470833 C64.60375,72.9220833 63.2941667,71.7379167 61.8504167,69.5504167 L56.5129167,72.6158333 C57.1254167,74.0158333 57.8254167,74.6254167 58.8754167,75.8504167 C63.9504167,80.9720833 76.6379167,80.7095833 78.9158333,72.9220833 C79.0004167,72.6595833 79.6158333,70.8658333 79.1316667,68.1095833 L79.2658333,68.305 L79.2658333,68.305 Z M53.0654167,47.17375 L46.50875,47.17375 C46.50875,52.82625 46.4825,58.44375 46.4825,64.105 C46.4825,67.6983333 46.66625,70.9970833 46.08,72.0120833 C45.1175,74.0216667 42.6383333,73.765 41.5125,73.4120833 C40.3575,72.8404167 39.77125,72.0529167 39.0916667,70.9183333 C38.9079167,70.6120833 38.7708333,70.3466667 38.72125,70.3466667 L33.3983333,73.6279167 C34.2879167,75.4654167 35.5858333,77.04625 37.26,78.0525 C39.75375,79.54 43.105,80.02125 46.61375,79.23375 C48.8975,78.5745833 50.86625,77.2183333 51.8958333,75.1183333 C53.3833333,72.4058333 53.0683333,69.0808333 53.05375,65.3591667 C53.08875,59.3683333 53.05375,53.3745833 53.05375,47.3370833 L53.0654167,47.17375 L53.0654167,47.17375 Z" id="Shape" fill="#303030" fill-rule="nonzero"></path>
            </g>
        </g>
    </g>
</svg>