<?xml version="1.0" encoding="UTF-8"?>
<svg width="100px" height="100px" viewBox="0 0 100 100" version="1.1" xmlns="http://www.w3.org/2000/svg" xmlns:xlink="http://www.w3.org/1999/xlink">
    <title>nextjs</title>
    <g id="Icons" stroke="none" stroke-width="1" fill="none" fill-rule="evenodd">
        <g transform="translate(-1116.000000, -43.000000)" id="nextjs">
            <g transform="translate(1116.000000, 43.000000)">
                <rect id="Icon-BG" fill="#3A3A3A" x="0" y="0" width="100" height="100" rx="25"></rect>
                <g id="next-js" transform="translate(15.000000, 13.000000)" fill="#FFFFFF" fill-rule="nonzero">
                    <path d="M32.7077224,0.0199104923 C32.5571848,0.0343733156 32.0782014,0.084993197 31.6471163,0.121150255 C21.7047898,1.06846518 12.3919844,6.73789189 6.49364614,15.4517429 C3.20918866,20.2967887 1.1085044,25.7926615 0.314760508,31.6139479 C0.0342130987,33.6459746 0,34.2461817 0,37.0013496 C0,39.7565174 0.0342130987,40.3567246 0.314760508,42.3887512 C2.2170088,56.280293 11.57087,67.9517913 24.257087,72.2761755 C26.5288368,73.0499365 28.9237537,73.5778296 31.6471163,73.8960117 C32.7077224,74.0189457 37.2922776,74.0189457 38.3528837,73.8960117 C43.0537634,73.3464244 47.0361681,72.1170844 50.9638319,69.9982808 C51.5659824,69.6728673 51.6823069,69.5860904 51.6001955,69.5137762 C51.5454545,69.4703878 48.9794721,65.8329877 45.9002933,61.4362894 L40.3030303,53.4455796 L33.2893451,42.4755282 C29.4301075,36.4445309 26.255132,31.5127081 26.2277615,31.5127081 C26.200391,31.5054767 26.1730205,36.3794482 26.1593353,42.3308999 C26.1388074,52.7513641 26.1319648,53.170786 26.0087977,53.416654 C25.8308895,53.7709931 25.6940371,53.9156214 25.4066471,54.0747124 C25.1876833,54.190415 24.9960899,54.2121092 23.9628543,54.2121092 L22.7790811,54.2121092 L22.4643206,54.0023983 C22.259042,53.8650015 22.1085044,53.6842162 22.0058651,53.4745052 L21.8621701,53.1490917 L21.8758553,38.6501114 L21.8963832,24.1438997 L22.1085044,23.8618746 C22.2179863,23.710015 22.4506354,23.5147669 22.6148583,23.4207585 C22.8954057,23.2761303 23.0048876,23.2616675 24.1886608,23.2616675 C25.5845552,23.2616675 25.8172043,23.3195188 26.1798631,23.7389406 C26.2825024,23.8546432 30.0801564,29.9001033 34.6236559,37.1821348 C39.1671554,44.4641664 45.3802542,54.4073573 48.4320626,59.2885602 L53.9745846,68.1615023 L54.255132,67.9662541 C56.7390029,66.259641 59.3665689,63.8298867 61.4467253,61.2988926 C65.8739003,55.9259538 68.7272727,49.3742949 69.6852395,42.3887512 C69.9657869,40.3567246 70,39.7565174 70,37.0013496 C70,34.2461817 69.9657869,33.6459746 69.6852395,31.6139479 C67.7829912,17.7224062 58.42913,6.05090779 45.742913,1.72652364 C43.5053763,0.959994004 41.1241447,0.432100955 38.455523,0.113918843 C37.7986315,0.0416047272 33.2756598,-0.0379408007 32.7077224,0.0199104923 L32.7077224,0.0199104923 Z M47.0361681,22.3938981 C47.3646139,22.5674519 47.6314761,22.9000969 47.7272727,23.2472046 C47.7820137,23.4352213 47.7956989,27.4558862 47.7820137,36.516845 L47.7614858,49.5189231 L45.5923754,46.004457 L43.4164223,42.489991 L43.4164223,33.038536 C43.4164223,26.9279932 43.4437928,23.4930726 43.4848485,23.3267502 C43.5943304,22.9217911 43.8338221,22.603609 44.1622678,22.4155923 C44.4428152,22.2637327 44.5454545,22.2492698 45.6197458,22.2492698 C46.6324536,22.2492698 46.8103617,22.2637327 47.0361681,22.3938981 Z" id="Shape"></path>
                    <path d="M53.5216136,68.3676164 C53.2888477,68.5304537 53.2156928,68.6414791 53.4218568,68.5156503 C53.5681668,68.4194282 53.8075831,68.2195824 53.7676804,68.2121807 C53.747729,68.2121807 53.6346713,68.2861977 53.5216136,68.3676164 Z M53.0627323,68.7006926 C52.9430242,68.8043164 52.9430242,68.8117181 53.0893341,68.7302994 C53.1691396,68.6858893 53.2356441,68.6340774 53.2356441,68.619274 C53.2356441,68.5600604 53.2023918,68.5748638 53.0627323,68.7006926 Z M52.7302096,68.9227435 C52.6105015,69.0263672 52.6105015,69.0337689 52.7568114,68.9523503 C52.8366169,68.9079401 52.9031214,68.8561283 52.9031214,68.8413249 C52.9031214,68.7821113 52.8698692,68.7969147 52.7302096,68.9227435 Z M52.3976869,69.1447944 C52.2779788,69.2484181 52.2779788,69.2558198 52.4242888,69.1744012 C52.5040942,69.129991 52.5705987,69.0781791 52.5705987,69.0633757 C52.5705987,69.0041622 52.5373465,69.0189656 52.3976869,69.1447944 Z M51.8922525,69.4408622 C51.6395352,69.5888961 51.6528361,69.6481097 51.9055534,69.5074775 C52.0186111,69.4408622 52.105067,69.3742469 52.105067,69.3594435 C52.105067,69.3076317 52.0984165,69.3150334 51.8922525,69.4408622 Z" id="Shape"></path>
                </g>
            </g>
        </g>
    </g>
</svg>