<?xml version="1.0" encoding="UTF-8"?>
<svg width="100px" height="100px" viewBox="0 0 100 100" version="1.1" xmlns="http://www.w3.org/2000/svg" xmlns:xlink="http://www.w3.org/1999/xlink">
    <title>nodejs</title>
    <g id="Icons" stroke="none" stroke-width="1" fill="none" fill-rule="evenodd">
        <g transform="translate(-996.000000, -43.000000)" id="nodejs">
            <g transform="translate(996.000000, 43.000000)">
                <rect id="Icon-BG" fill="#339933" x="0" y="0" width="100" height="100" rx="25"></rect>
                <path d="M50.3530665,89.9368124 C49.2972943,89.9368124 48.2448111,89.6605356 47.3205993,89.124427 L37.6640659,83.4114166 C36.2234795,82.6056091 36.9273276,82.3194653 37.4009451,82.1517258 C39.3250159,81.4840567 39.7131191,81.3294733 41.7687504,80.1651637 C41.982536,80.0434703 42.2653909,80.0895165 42.4857545,80.2210769 L49.9057611,84.6250613 C50.1754599,84.7730667 50.5536961,84.7730667 50.8003718,84.6250613 L79.7272149,67.9300465 C79.9969137,67.775463 80.1679422,67.4662961 80.1679422,67.1472621 L80.1679422,33.7638105 C80.1679422,33.4381985 79.9936247,33.1323206 79.7173478,32.9678701 L50.8036609,16.2860113 C50.537251,16.1314279 50.182038,16.1314279 49.9123391,16.2860113 L21.0052302,32.9711591 C20.7256643,33.1323206 20.5480578,33.4480656 20.5480578,33.7638105 L20.5480578,67.1472621 C20.5480578,67.4662961 20.7256643,67.768885 21.0052302,67.9201795 L28.9284553,72.4984814 C33.2271914,74.6494939 35.8616884,72.1169562 35.8616884,69.5712625 L35.8616884,36.6120932 C35.8616884,36.1450538 36.2366355,35.7799737 36.703675,35.7799737 L40.3709211,35.7799737 C40.8280935,35.7799737 41.2096187,36.1483428 41.2096187,36.6120932 L41.2096187,69.5712625 C41.2096187,75.3105849 38.0850592,78.5995949 32.6450366,78.5995949 C30.9742195,78.5995949 29.6553265,78.5995949 25.9815023,76.7873504 L18.3904672,72.4228342 C16.5157315,71.3407499 15.358,69.3147197 15.358,67.1472621 L15.358,33.7638105 C15.358,31.5963529 16.5190205,29.5703228 18.3904672,28.4915275 L47.3173102,11.7767786 C49.1492888,10.7407405 51.5798672,10.7407405 53.3954007,11.7767786 L82.3189548,28.4915275 C84.1936905,29.5736118 85.358,31.5963529 85.358,33.7638105 L85.358,67.1472621 C85.358,69.3147197 84.1936905,71.3341718 82.3189548,72.4228342 L53.3954007,89.124427 C52.4744779,89.6605356 51.4252837,89.9368124 50.3530665,89.9368124 Z M73.7083266,57.0236893 C73.7083266,50.7745703 69.4852377,49.1103312 60.5950436,47.9361546 C51.6127573,46.748822 50.6984125,46.1337772 50.6984125,44.0320998 C50.6984125,42.2955025 51.4713299,39.9767504 58.1249971,39.9767504 C64.0682382,39.9767504 66.2587189,41.2561753 67.1599076,45.2621895 C67.2388439,45.6404257 67.5841899,45.9167025 67.9722931,45.9167025 L71.7250535,45.9167025 C71.9585732,45.9167025 72.1789369,45.8147432 72.3368094,45.6502927 C72.4946819,45.4726861 72.5801961,45.2457445 72.557173,45.0056467 C71.9750183,38.1053037 67.3901383,34.8886519 58.1249971,34.8886519 C49.87616,34.8886519 44.9558011,38.3684245 44.9558011,44.2064173 C44.9558011,50.5377616 49.849848,52.2875149 57.766495,53.0702993 C67.2388439,53.9978001 67.9722931,55.3824733 67.9722931,57.244053 C67.9722931,60.4771498 65.3772642,61.855245 59.2827287,61.855245 C51.6292024,61.855245 49.9452292,59.9344632 49.3795195,56.1257896 C49.3137393,55.7179523 48.9651043,55.4186524 48.5474,55.4186524 L44.8077956,55.4186524 C44.3440452,55.4186524 43.9723871,55.7870215 43.9723871,56.2507719 C43.9723871,61.1250848 46.6233291,66.9334787 59.2827287,66.9334787 C68.4524886,66.9367655 73.7083266,63.3287215 73.7083266,57.0236893 Z" id="Shape" fill="#FFFFFF" fill-rule="nonzero"></path>
            </g>
        </g>
    </g>
</svg>