<?xml version="1.0" encoding="UTF-8"?>
<svg width="100px" height="100px" viewBox="0 0 100 100" version="1.1" xmlns="http://www.w3.org/2000/svg" xmlns:xlink="http://www.w3.org/1999/xlink">
    <title>react</title>
    <g id="Icons" stroke="none" stroke-width="1" fill="none" fill-rule="evenodd">
        <g transform="translate(-636.000000, -43.000000)" id="react">
            <g transform="translate(636.000000, 43.000000)">
                <rect id="Icon-BG" fill="#61DAFB" x="0" y="0" width="100" height="100" rx="25"></rect>
                <path d="M56.5041667,50.4931667 C56.5041667,54.093845 53.5860946,57.013223 49.9854167,57.0148333 C46.3835996,57.0148333 43.46375,54.0949837 43.46375,50.4931667 C43.46375,46.8924883 46.381822,43.9731103 49.9825,43.9715 C53.584317,43.9715 56.5041667,46.8913496 56.5041667,50.4931667 L56.5041667,50.4931667 Z M64.2275,19.314 C60.3016667,19.314 55.1654167,22.114 49.9708333,26.9615 C44.7791667,22.14025 39.64,19.3723333 35.7170833,19.3723333 C34.52125,19.3723333 33.4333333,19.6435833 32.49125,20.1831667 C28.4808333,22.4960833 27.5825,29.7031667 29.6533333,38.74775 C20.775,41.4894167 15,45.8731667 15,50.4931667 C15,55.1306667 20.8041667,59.5260833 29.70875,62.2473333 C27.6554167,71.3269167 28.57125,78.5456667 32.5904167,80.8556667 C33.52375,81.4010833 34.6029167,81.65775 35.8045833,81.65775 C39.7275,81.65775 44.8666667,78.85775 50.06125,74.0044167 C55.2529167,78.8285833 60.3920833,81.5965 64.315,81.5965 C65.5108333,81.5965 66.59875,81.334 67.5408333,80.7944167 C71.5483333,78.4844167 72.4495833,71.2773333 70.37875,62.2298333 C79.225,59.5115 85,55.119 85,50.4931667 C85,45.8556667 79.1958333,41.46025 70.29125,38.7331667 C72.3445833,29.6623333 71.42875,22.43775 67.4095833,20.1248333 C66.4820833,19.5881667 65.4029167,19.3169167 64.2245833,19.314 L64.2275,19.314 Z M64.2129167,22.4931667 L64.2129167,22.5106667 C64.8691667,22.5106667 65.3970833,22.639 65.8404167,22.8810833 C67.7829167,23.99525 68.6258333,28.2331667 67.9695833,33.6844167 C67.8120833,35.0260833 67.5554167,36.4406667 67.2404167,37.8844167 C64.4404167,37.1960833 61.3895833,36.6681667 58.1783333,36.3269167 C56.2533333,33.6873333 54.2554167,31.2898333 52.2429167,29.1898333 C56.88625,24.8731667 61.2466667,22.5048333 64.2158333,22.4960833 L64.2129167,22.4931667 Z M35.7170833,22.5515 C38.66875,22.5515 43.0495833,24.9081667 47.7045833,29.2015 C45.70375,31.3015 43.70875,33.6844167 41.8129167,36.324 C38.5841667,36.66525 35.5304167,37.1931667 32.7333333,37.8931667 C32.4066667,36.464 32.1645833,35.0815 31.9925,33.7515 C31.3216667,28.3031667 32.15,24.0681667 34.075,22.9394167 C34.6291667,22.6769167 35.2416667,22.569 35.7170833,22.5544167 L35.7170833,22.5515 Z M49.95625,31.4473333 C51.2833333,32.8123333 52.6104167,34.3406667 53.9229167,36.009 C52.6395833,35.9506667 51.3270833,35.9098333 50,35.9098333 C48.6583333,35.9098333 47.33125,35.939 46.0333333,36.009 C47.3166667,34.3406667 48.64375,32.8123333 49.95625,31.4444167 L49.95625,31.4473333 Z M50,39.1065 C52.1583333,39.1065 54.3079167,39.2056667 56.4225,39.37775 C57.6066667,41.07525 58.7616667,42.8865 59.8729167,44.80275 C60.9579167,46.6694167 61.94375,48.56525 62.8420833,50.4785833 C61.94375,52.389 60.9579167,54.2994167 59.8875,56.1660833 C58.7791667,58.0910833 57.6329167,59.92275 56.4458333,61.62025 C54.3225,61.804 52.17,61.9060833 50,61.9060833 C47.8416667,61.9060833 45.6920833,61.804 43.5775,61.6348333 C42.3933333,59.9373333 41.2383333,58.1231667 40.1270833,56.2098333 C39.0420833,54.3431667 38.05625,52.4473333 37.1579167,50.534 C38.0416667,48.61775 39.0420833,46.7044167 40.1125,44.8348333 C41.2208333,42.9098333 42.3670833,41.084 43.5541667,39.3865 C45.6775,39.1998333 47.83,39.1006667 50,39.1006667 L50,39.1065 Z M39.3979167,39.8473333 C38.6979167,40.9469167 37.9979167,42.07275 37.3445833,43.2306667 C36.6883333,44.3681667 36.0758333,45.5115 35.4925,46.6548333 C34.7195833,44.7415 34.0633333,42.834 33.5208333,40.9760833 C35.3875,40.5385833 37.35625,40.1506667 39.3979167,39.85025 L39.3979167,39.8473333 Z M60.5729167,39.8473333 C62.6,40.14775 64.5541667,40.5181667 66.42375,40.9760833 C65.89875,42.8194167 65.2425,44.71525 64.49875,46.614 C63.9154167,45.4765 63.3029167,44.33025 62.6320833,43.1898333 C61.9758333,42.0465 61.2758333,40.9323333 60.5758333,39.8473333 L60.5729167,39.8473333 Z M69.5066667,41.8160833 C70.9183333,42.2535833 72.26,42.7406667 73.5170833,43.2685833 C78.56875,45.4269167 81.8354167,48.25025 81.8354167,50.49025 C81.8208333,52.73025 78.5541667,55.56525 73.5025,57.709 C72.2775,58.234 70.9358333,58.7065 69.5504167,59.1469167 C68.73375,56.35275 67.66625,53.4419167 66.3420833,50.45525 C67.6545833,47.489 68.7045833,44.59275 69.5066667,41.81025 L69.5066667,41.8160833 Z M30.4379167,41.82775 C31.24875,44.62775 32.3191667,47.5356667 33.64625,50.5194167 C32.33375,53.4856667 31.2779167,56.3819167 30.47875,59.1644167 C29.0670833,58.7269167 27.7254167,58.2369167 26.4829167,57.7060833 C21.43125,55.5565 18.1645833,52.73025 18.1645833,50.49025 C18.1645833,48.25025 21.43125,45.4094167 26.4829167,43.2685833 C27.7079167,42.7435833 29.0495833,42.2710833 30.4379167,41.82775 L30.4379167,41.82775 Z M64.49875,54.3110833 C65.2716667,56.2273333 65.9279167,58.13775 66.4704167,59.99275 C64.60375,60.4506667 62.6320833,60.8385833 60.5904167,61.13025 C61.2904167,60.0365 61.9904167,58.90775 62.6466667,57.75275 C63.3029167,56.61525 63.9154167,55.4544167 64.5016667,54.3110833 L64.49875,54.3110833 Z M35.4925,54.3694167 C36.0758333,55.51275 36.6883333,56.6531667 37.3591667,57.7965 C38.03,58.934 38.7154167,60.0481667 39.4154167,61.13025 C37.3883333,60.83275 35.4341667,60.4594167 33.5645833,60.0044167 C34.0895833,58.1669167 34.74875,56.26525 35.4895833,54.3665 L35.4925,54.3694167 Z M67.2666667,63.0815 C67.5933333,64.5194167 67.85,65.9048333 68.0075,67.2319167 C68.6783333,72.68025 67.85,76.91525 65.925,78.0469167 C65.49625,78.3094167 64.9391667,78.42025 64.2829167,78.42025 C61.33125,78.42025 56.9504167,76.0665 52.2954167,71.77025 C54.29625,69.67025 56.29125,67.29025 58.1870833,64.6535833 C61.4158333,64.3094167 64.4695833,63.7785833 67.2666667,63.0785833 L67.2666667,63.0815 Z M32.7625,63.1106667 C35.5625,63.7931667 38.6133333,64.3210833 41.8245833,64.6623333 C43.7495833,67.3019167 45.7475,69.6994167 47.76,71.7965 C43.1079167,76.1219167 38.7416667,78.49025 35.7725,78.49025 C35.1308333,78.4756667 34.5883333,78.3444167 34.1595833,78.10525 C32.2170833,76.9969167 31.3741667,72.7560833 32.0304167,67.3048333 C32.1879167,65.9631667 32.4445833,64.5515 32.7595833,63.1106667 L32.7625,63.1106667 Z M46.0625,64.9773333 C47.3458333,65.0356667 48.6583333,65.0765 49.9854167,65.0765 C51.3270833,65.0765 52.6541667,65.0473333 53.9520833,64.9773333 C52.66875,66.6456667 51.3416667,68.1710833 50.0291667,69.5419167 C48.7020833,68.1710833 47.375,66.6456667 46.0625,64.9773333 Z" id="Shape" fill="#000000" fill-rule="nonzero"></path>
            </g>
        </g>
    </g>
</svg>