<?xml version="1.0" encoding="UTF-8"?>
<svg width="100px" height="100px" viewBox="0 0 100 100" version="1.1" xmlns="http://www.w3.org/2000/svg" xmlns:xlink="http://www.w3.org/1999/xlink">
    <title>sass</title>
    <g id="Icons" stroke="none" stroke-width="1" fill="none" fill-rule="evenodd">
        <g transform="translate(-276.000000, -43.000000)" id="sass">
            <g transform="translate(276.000000, 43.000000)">
                <rect id="Icon-BG" fill="#CC6699" x="0" y="0" width="100" height="100" rx="25"></rect>
                <path d="M50,15 C69.32875,15 85,30.67125 85,50 C85,69.32875 69.32875,85 50,85 C30.67125,85 15,69.32875 15,50 C15,30.67125 30.67125,15 50,15 Z M43.04375,61.6608333 C43.5541667,63.5420833 43.49875,65.3008333 42.97375,66.8875 L42.7841667,67.4125 C42.7141667,67.5904167 42.6325,67.7625 42.5566667,67.9258333 C42.1483333,68.7716667 41.6058333,69.5591667 40.9379167,70.2883333 C38.9020833,72.5020833 36.06125,73.3420833 34.8420833,72.63625 C33.5295833,71.8720833 34.1829167,68.7425 36.5454167,66.24875 C39.0858333,63.57125 42.72875,61.8475 42.72875,61.8475 L42.72875,61.83875 L43.04375,61.6608333 L43.04375,61.6608333 Z M71.9508333,29.9829167 C70.37,23.7616667 60.0595833,21.7170833 50.3033333,25.185 C44.5020833,27.2470833 38.2166667,30.4875 33.69875,34.71375 C28.3233333,39.7333333 27.46875,44.1083333 27.8216667,45.9370833 C29.0670833,52.3858333 37.9045833,56.6033333 41.53875,59.7329167 L41.53875,59.7504167 C40.4683333,60.2754167 32.6254167,64.21 30.7879167,68.2816667 C28.8191667,72.5691667 31.0941667,75.6345833 32.5816667,76.0254167 C37.1754167,77.2970833 41.9004167,74.9754167 44.4379167,71.2158333 C46.8879167,67.5379167 46.6720833,62.8129167 45.61625,60.4941667 C47.0629167,60.1004167 48.76625,59.9254167 50.95375,60.1908333 C57.0816667,60.8908333 58.3066667,64.7408333 58.04125,66.3158333 C57.77875,67.8879167 56.5158333,68.8066667 56.0754167,69.0691667 C55.6379167,69.3345833 55.5066667,69.4191667 55.5475,69.5970833 C55.59125,69.8595833 55.8129167,69.8595833 56.16,69.8158333 C56.64125,69.7283333 59.3566667,68.5033333 59.4879167,65.5254167 C59.6191667,61.7629167 56.02875,57.5658333 49.6441667,57.6504167 C47.0191667,57.6970833 45.35375,57.9158333 44.1754167,58.3970833 C44.0879167,58.2658333 43.9975,58.1783333 43.8691667,58.0908333 C39.9316667,53.8470833 32.6254167,50.8720833 32.9316667,45.2283333 C33.0191667,43.1720833 33.7629167,37.75 46.9316667,31.1875 C57.7379167,25.8033333 66.3595833,27.29375 67.8470833,30.575 C69.985,35.2533333 63.2504167,43.9625 52.0066667,45.2283333 C47.7191667,45.7095833 45.4879167,44.05 44.91625,43.4345833 C44.3066667,42.7783333 44.2191667,42.7345833 44.0004167,42.86875 C43.6504167,43.04375 43.8691667,43.6125 44.0004167,43.9625 C44.3504167,44.8375 45.7066667,46.36875 48.0720833,47.15625 C50.1254167,47.8125 55.1595833,48.2033333 61.1970833,45.84375 C67.9754167,43.2216667 73.2691667,35.9125 71.7379167,29.7875 L71.9508333,29.9829167 Z" id="Shape" fill="#FFFFFF" fill-rule="nonzero"></path>
            </g>
        </g>
    </g>
</svg>