<?xml version="1.0" encoding="UTF-8"?>
<svg width="100px" height="100px" viewBox="0 0 100 100" version="1.1" xmlns="http://www.w3.org/2000/svg" xmlns:xlink="http://www.w3.org/1999/xlink">
    <title>typescript</title>
    <g id="Icons" stroke="none" stroke-width="1" fill="none" fill-rule="evenodd">
        <g transform="translate(-516.000000, -43.000000)" id="typescript">
            <g transform="translate(516.000000, 43.000000)">
                <rect id="Icon-BG" fill="#3178C6" x="0" y="0" width="100" height="100" rx="25"></rect>
                <path d="M18.28125,15 C16.4641667,15 15,16.4641667 15,18.28125 L15,81.71875 C15,83.5358333 16.4641667,85 18.28125,85 L81.71875,85 C83.5358333,85 85,83.5358333 85,81.71875 L85,18.28125 C85,16.4641667 83.5358333,15 81.71875,15 L18.28125,15 Z M68.9233333,43.4371803 C70.7083333,43.4371803 72.2891667,43.5454167 73.66875,43.76125 C74.9699603,43.9562091 76.2468239,44.2886238 77.4779167,44.7529167 L77.4779167,51.9220833 C76.8869778,51.5133991 76.2591036,51.1608912 75.6025,50.8691667 C74.92535,50.5644761 74.2263071,50.3109878 73.51125,50.1108333 C72.1567426,49.7333893 70.7581629,49.537235 69.3520833,49.5275 C68.4770833,49.5275 67.6808333,49.6091667 66.9633333,49.7783333 C66.3238426,49.9150996 65.7103806,50.1533946 65.14625,50.4841667 C64.6504167,50.7875 64.27125,51.1520833 64,51.575 C63.7271807,52.0012625 63.5852229,52.4981147 63.5916667,53.0041667 C63.5916667,53.5758333 63.74625,54.0920833 64.0466667,54.5470833 C64.35,55.0020833 64.7816667,55.43375 65.33875,55.8420833 C65.8958333,56.2504167 66.5725,56.6470833 67.36875,57.0379167 C68.165,57.4316667 69.06625,57.8370833 70.0695833,58.25125 C71.4404167,58.8258333 72.67125,59.4383333 73.7620833,60.0829167 C74.8529167,60.7304167 75.7891667,61.4625 76.5708333,62.2791667 C77.3525,63.0929167 77.9475,64.0233333 78.3616667,65.0704167 C78.7758333,66.1175 78.9858333,67.33375 78.9858333,68.725 C78.9858333,70.64125 78.62125,72.2541667 77.8979167,73.555 C77.1911911,74.8379573 76.1769566,75.925353 74.94625,76.7195833 C73.6197169,77.5607315 72.149435,78.1500308 70.6091667,78.4579167 C68.9583333,78.8079167 67.2170833,78.983195 65.3883333,78.983195 C63.5884575,78.9908125 61.7917742,78.8306733 60.0216667,78.5045833 C58.4902019,78.2397052 57.004924,77.7554181 55.6116667,77.0666667 L55.6116667,69.3958333 C58.2476905,71.6391033 61.5916178,72.8787427 65.0529167,72.8958333 C66.0241667,72.8958333 66.8729167,72.8083333 67.59625,72.6333333 C68.3225,72.4583333 68.92625,72.2133333 69.4133333,71.9041667 C69.8975,71.5891667 70.2591667,71.2216667 70.50125,70.7958333 C71.0473265,69.7839391 70.9633622,68.5483025 70.2854167,67.6195833 C69.8520631,67.0461333 69.3220431,66.5526325 68.7191667,66.16125 C67.9714951,65.6656488 67.1842467,65.2325159 66.3654167,64.86625 C65.3948757,64.4230226 64.4156561,63.9990507 63.4283333,63.5945833 C60.7508333,62.4775 58.7558333,61.1095833 57.4404167,59.4966667 C56.1279167,57.88375 55.46875,55.9325 55.46875,53.64875 C55.46875,51.8579167 55.8275,50.3208333 56.545,49.0345833 C57.2625,47.7483333 58.2366667,46.6895833 59.4733333,45.8583333 C60.7813482,44.9954366 62.233494,44.3740762 63.7608333,44.02375 C65.4524369,43.6249181 67.1853742,43.4281269 68.9233333,43.4371803 L68.9233333,43.4371803 Z M24.84375,43.9858333 L52.7358333,43.9858333 L52.7358333,50.3033333 L42.7258333,50.3033333 L42.7258333,78.4375 L34.80125,78.4375 L34.80125,50.3033333 L24.84375,50.3033333 L24.84375,43.9858333 Z" id="Shape" fill="#FFFFFF" fill-rule="nonzero"></path>
            </g>
        </g>
    </g>
</svg>