<?xml version="1.0" encoding="UTF-8"?>
<svg width="100px" height="100px" viewBox="0 0 100 100" version="1.1" xmlns="http://www.w3.org/2000/svg" xmlns:xlink="http://www.w3.org/1999/xlink">
    <title>vscode</title>
    <g id="Icons" stroke="none" stroke-width="1" fill="none" fill-rule="evenodd">
        <g transform="translate(-1356.000000, -43.000000)" id="vscode">
            <g transform="translate(1356.000000, 43.000000)">
                <rect id="Icon-BG" fill="#007ACC" x="0" y="0" width="100" height="100" rx="25"></rect>
                <path d="M79.6979167,24.0064583 L66.31875,17.56875 C64.769035,16.8224559 62.9168782,17.1374856 61.7010417,18.3541667 L36.0802083,41.7270833 L24.921875,33.2554167 C23.8831783,32.4675723 22.4303541,32.5324712 21.4660417,33.4097917 L17.885625,36.6652083 C17.3214515,37.1780702 16.9990689,37.9049797 16.9990689,38.6674223 C16.9990689,39.4298649 17.3194372,40.157209 17.8829167,40.6708333 L27.5597917,49.5 L17.8829167,58.3291667 C17.3194372,58.842791 16.9990689,59.5701351 16.9990689,60.3325777 C16.9990689,61.0950203 17.3214515,61.8219298 17.885625,62.3347917 L21.46875,65.5875 C22.4330624,66.4648205 23.8858866,66.5297193 24.9245833,65.741875 L36.0829167,57.2702083 L61.70375,80.643125 C62.9183225,81.8601063 64.7699838,82.1752365 66.31875,81.4285417 L79.7033333,74.9908333 C81.1085519,74.312611 82.0011574,72.8894947 82.0000011,71.3291667 L82.0000011,27.668125 C82.0000011,26.1065683 81.1052442,24.6831329 79.6979167,24.0064583 Z M65.7608333,64.255 L46.3204167,49.5 L65.7608333,34.745 L65.7608333,64.255 L65.7608333,64.255 Z" id="Shape" fill="#FFFFFF" fill-rule="nonzero"></path>
            </g>
        </g>
    </g>
</svg>